{"glyphs":{"0":{"ha":814,"x_min":0,"x_max":678,"o":"m 0 746 q 339 1017 0 1017 q 678 746 678 1017 l 678 271 q 339 0 678 0 q 0 271 0 0 l 0 746 m 543 678 l 543 746 q 339 882 543 882 q 136 746 136 882 l 136 475 l 543 678 m 136 339 l 136 271 q 339 136 136 136 q 543 271 543 136 l 543 543 l 136 339 z "},"1":{"ha":679,"x_min":0,"x_max":543,"o":"m 0 882 q 203 1017 203 882 l 339 1017 l 339 136 l 543 136 l 543 0 l 0 0 l 0 136 l 203 136 l 203 746 l 0 746 l 0 882 z "},"2":{"ha":814,"x_min":0,"x_max":678,"o":"m 0 0 q 339 543 0 543 q 543 746 543 543 q 339 882 543 882 q 136 746 136 882 l 0 746 q 339 1017 0 1017 q 678 746 678 1017 q 339 407 678 407 q 136 136 136 407 l 678 136 l 678 0 l 0 0 z "},"3":{"ha":814,"x_min":0,"x_max":678,"o":"m 136 746 l 0 746 q 339 1017 0 1017 q 678 746 678 1017 q 543 543 678 610 q 678 407 678 475 l 678 271 q 339 0 678 0 q 0 271 0 0 l 136 271 q 339 136 136 136 q 543 271 543 136 q 407 475 543 475 l 271 475 l 271 610 l 407 610 q 543 746 543 610 q 339 882 543 882 q 136 746 136 882 z "},"4":{"ha":814,"x_min":0,"x_max":678,"o":"m 0 1017 l 136 1017 l 136 543 l 543 543 l 543 1017 l 678 1017 l 678 0 l 543 0 l 543 407 l 0 407 l 0 1017 z "},"5":{"ha":814,"x_min":0,"x_max":678,"o":"m 678 1017 l 678 882 l 136 882 l 136 678 l 339 678 q 678 407 678 678 l 678 271 q 339 0 678 0 q 0 271 0 0 l 136 271 q 339 136 136 136 q 543 272 543 136 l 543 407 q 339 543 543 543 l 0 543 l 0 1017 l 678 1017 z "},"6":{"ha":814,"x_min":0,"x_max":678,"o":"m 678 339 l 678 271 q 339 0 678 0 q 0 271 0 0 l 0 746 q 339 1017 0 1017 q 678 746 678 1017 l 543 746 q 339 882 543 882 q 136 746 136 882 l 136 610 l 339 610 q 678 339 678 610 m 339 475 l 136 475 l 136 271 q 339 136 136 136 q 543 271 543 136 l 543 339 q 339 475 543 475 z "},"7":{"ha":814,"x_min":0,"x_max":678,"o":"m 0 1017 l 678 1017 l 339 0 l 203 0 l 475 882 l 0 882 l 0 1017 z "},"8":{"ha":814,"x_min":0,"x_max":678,"o":"m 678 339 q 339 0 678 0 q 0 339 0 0 q 136 543 0 475 q 35 678 68 576 l 35 814 q 339 1017 68 1017 q 643 812 610 1017 l 643 677 q 543 543 610 574 q 678 339 678 475 m 543 339 q 339 475 543 475 q 136 339 136 475 q 339 136 136 136 q 543 339 543 136 m 339 610 q 507 678 475 610 l 507 812 q 339 882 475 882 q 170 814 203 882 l 170 678 q 339 610 203 610 z "},"9":{"ha":814,"x_min":0,"x_max":678,"o":"m 0 678 l 0 746 q 339 1017 0 1017 q 678 746 678 1017 l 678 271 q 339 0 678 0 q 0 271 0 0 l 136 271 q 339 136 136 136 q 543 271 543 136 l 543 407 l 339 407 q 0 678 0 407 m 339 543 l 543 543 l 543 746 q 339 882 543 882 q 136 746 136 882 l 136 678 q 339 543 136 543 z "},"\"":{"ha":543,"x_min":0,"x_max":407,"o":"m 136 1017 l 136 746 l 0 746 l 0 1017 l 136 1017 m 407 1017 l 407 746 l 271 746 l 271 1017 l 407 1017 z "},"#":{"ha":814,"x_min":0,"x_max":678,"o":"m 271 1017 l 271 814 l 407 814 l 407 1017 l 543 1017 l 543 814 l 678 814 l 678 678 l 543 678 l 543 339 l 678 339 l 678 203 l 543 203 l 543 0 l 407 0 l 407 203 l 271 203 l 271 0 l 136 0 l 136 203 l 0 203 l 0 339 l 136 339 l 136 678 l 0 678 l 0 814 l 136 814 l 136 1017 l 271 1017 m 271 678 l 271 339 l 407 339 l 407 678 l 271 678 z "},"$":{"ha":814,"x_min":0,"x_max":678,"o":"m 543 746 q 339 882 543 882 q 136 746 136 882 q 339 610 136 610 q 678 339 678 610 l 678 271 q 339 0 678 0 q 0 271 0 0 l 136 271 q 339 136 136 136 q 543 271 543 136 l 543 339 q 339 475 543 475 q 0 678 0 475 l 0 746 q 339 1017 0 1017 q 678 746 678 1017 l 543 746 m 368 1153 l 368 -136 l 302 -136 l 302 1153 l 368 1153 z "},"%":{"ha":814,"x_min":0,"x_max":678,"o":"m 678 1017 l 136 0 l 0 0 l 543 1017 l 678 1017 m 271 882 q 232 786 271 825 q 136 746 192 746 q 40 786 79 746 q 0 882 0 825 q 40 978 0 938 q 136 1017 79 1017 q 232 978 192 1017 q 271 882 271 938 m 136 949 q 88 929 108 949 q 68 882 68 909 q 88 834 68 854 q 136 814 108 814 q 183 834 163 814 q 203 882 203 854 q 183 929 203 909 q 136 949 163 949 m 678 136 q 638 40 678 79 q 543 0 599 0 q 447 40 486 0 q 407 136 407 79 q 447 232 407 192 q 543 271 486 271 q 638 232 599 271 q 678 136 678 192 m 543 203 q 495 183 515 203 q 475 136 475 163 q 495 88 475 108 q 543 68 515 68 q 590 88 570 68 q 610 136 610 108 q 590 183 610 163 q 543 203 570 203 z "},"&":{"ha":949,"x_min":0,"x_max":814,"o":"m 678 339 q 339 0 678 0 q 0 339 0 0 q 136 543 0 475 q 68 678 68 610 l 68 814 q 339 1017 68 1017 q 610 814 610 1017 l 610 678 q 543 543 610 610 q 678 339 678 475 m 543 339 q 339 475 543 475 q 136 339 136 475 q 339 136 136 136 q 543 339 543 136 m 339 610 q 475 712 475 610 l 475 814 q 339 882 475 882 q 203 814 203 882 l 203 678 q 339 610 203 610 m 814 136 l 814 0 l 339 0 l 339 136 l 814 136 m 814 610 l 814 475 l 543 475 l 543 610 l 814 610 z "},"'":{"ha":271,"x_min":0,"x_max":136,"o":"m 136 1017 l 136 746 l 0 746 l 0 1017 l 136 1017 z "},"(":{"ha":475,"x_min":0,"x_max":339,"o":"m 339 814 q 136 678 136 814 l 136 271 q 339 136 136 136 l 339 0 q 0 271 0 0 l 0 678 q 339 949 0 949 l 339 814 z "},")":{"ha":475,"x_min":0,"x_max":339,"o":"m 0 949 q 339 678 339 949 l 339 271 q 0 0 339 0 l 0 136 q 203 271 203 136 l 203 678 q 0 814 203 814 l 0 949 z "},"*":{"ha":814,"x_min":0,"x_max":680,"o":"m 510 882 l 567 825 l 454 598 l 680 598 l 680 485 l 454 485 l 567 258 l 510 201 l 340 428 l 170 201 l 113 258 l 227 485 l 0 485 l 0 598 l 227 598 l 113 825 l 170 882 l 340 655 l 510 882 z "},"+":{"ha":814,"x_min":0,"x_max":678,"o":"m 678 610 l 678 475 l 0 475 l 0 610 l 678 610 m 407 882 l 407 203 l 271 203 l 271 882 l 407 882 z "},",":{"ha":339,"x_min":0,"x_max":203,"o":"m 0 240 q 100 339 0 339 q 199 240 199 339 l 199 140 l 203 1 l 154 1 l 100 140 q 0 240 0 140 z "},".":{"ha":339,"x_min":-1,"x_max":203,"o":"m 203 101 q 174 28 203 58 q 101 -1 144 -1 q 28 28 58 -1 q -1 101 -1 58 q 28 174 -1 144 q 101 203 58 203 q 174 174 144 203 q 203 101 203 144 z "},"/":{"ha":814,"x_min":0,"x_max":678,"o":"m 678 1017 l 136 0 l 0 0 l 543 1017 l 678 1017 z "},":":{"ha":339,"x_min":0,"x_max":205,"o":"m 203 713 q 173 641 203 671 q 102 611 143 611 q 30 641 60 611 q 0 713 0 671 q 30 784 0 754 q 102 814 60 814 q 173 784 143 814 q 203 713 203 754 m 205 306 q 175 233 205 263 q 102 203 145 203 q 30 233 60 203 q 0 306 0 263 q 30 378 0 349 q 102 408 60 408 q 175 378 145 408 q 205 306 205 349 z "},"<":{"ha":678,"x_min":0,"x_max":543,"o":"m 0 407 l 0 543 l 543 814 l 543 646 l 136 475 l 543 303 l 543 136 l 0 407 z "},"=":{"ha":814,"x_min":0,"x_max":678,"o":"m 678 746 l 678 610 l 0 610 l 0 746 l 678 746 m 678 475 l 678 339 l 0 339 l 0 475 l 678 475 z "},">":{"ha":678,"x_min":0,"x_max":543,"o":"m 0 136 l 0 303 l 407 475 l 0 646 l 0 814 l 543 543 l 543 407 l 0 136 z "},"?":{"ha":814,"x_min":0,"x_max":678,"o":"m 203 271 q 475 543 203 543 q 543 746 543 543 q 339 882 543 882 q 136 746 136 882 l 0 746 q 339 1017 0 1017 q 678 746 678 1017 q 543 407 678 407 q 339 271 339 407 l 203 271 m 339 136 l 339 0 l 203 0 l 203 136 l 339 136 z "},"@":{"ha":814,"x_min":0,"x_max":678,"o":"m 678 0 l 339 0 q 0 271 0 0 l 0 746 q 339 1017 0 1017 q 678 746 678 1017 l 678 543 q 339 271 678 271 l 339 407 q 543 543 543 407 l 543 746 q 339 882 543 882 q 136 746 136 882 l 136 271 q 339 136 136 136 l 678 136 l 678 0 z "},"A":{"ha":814,"x_min":0,"x_max":678,"o":"m 0 0 l 0 746 q 339 1017 0 1017 q 678 746 678 1017 l 678 0 l 543 0 l 543 407 l 136 407 l 136 0 l 0 0 m 543 543 l 543 746 q 339 882 543 882 q 136 746 136 882 l 136 543 l 543 543 z "},"B":{"ha":814,"x_min":0,"x_max":678,"o":"m 678 339 q 339 0 678 0 l 0 0 l 0 1017 l 339 1017 q 610 746 610 1017 q 543 543 610 610 q 678 339 678 475 m 543 339 q 339 475 543 475 l 136 475 l 136 136 l 339 136 q 543 339 543 136 m 136 610 l 339 610 q 475 746 475 610 q 339 882 475 882 l 136 882 l 136 610 z "},"C":{"ha":814,"x_min":0,"x_max":678,"o":"m 0 271 l 0 746 q 339 1017 0 1017 q 678 746 678 1017 l 543 746 q 339 882 543 882 q 136 746 136 882 l 136 271 q 339 136 136 136 q 543 271 543 136 l 678 271 q 339 0 678 0 q 0 271 0 0 z "},"D":{"ha":814,"x_min":0,"x_max":678,"o":"m 0 1017 l 339 1017 q 678 746 678 1017 l 678 271 q 339 0 678 0 l 0 0 l 0 1017 m 136 136 l 339 136 q 543 271 543 136 l 543 746 q 339 882 543 882 l 136 882 l 136 136 z "},"E":{"ha":814,"x_min":0,"x_max":678,"o":"m 0 0 l 0 1017 l 678 1017 l 678 882 l 136 882 l 136 610 l 543 610 l 543 475 l 136 475 l 136 136 l 678 136 l 678 0 l 0 0 z "},"F":{"ha":814,"x_min":0,"x_max":678,"o":"m 0 0 l 0 1017 l 678 1017 l 678 882 l 136 882 l 136 610 l 543 610 l 543 475 l 136 475 l 136 0 l 0 0 z "},"G":{"ha":814,"x_min":0,"x_max":678,"o":"m 0 271 l 0 746 q 339 1017 0 1017 q 678 746 678 1017 l 543 746 q 339 882 543 882 q 136 746 136 882 l 136 271 q 339 136 136 136 q 543 271 543 136 l 543 339 l 407 339 l 407 475 l 678 475 l 678 271 q 339 0 678 0 q 0 271 0 0 z "},"H":{"ha":814,"x_min":0,"x_max":678,"o":"m 0 1017 l 136 1017 l 136 610 l 543 610 l 543 1017 l 678 1017 l 678 0 l 543 0 l 543 475 l 136 475 l 136 0 l 0 0 l 0 1017 z "},"I":{"ha":271,"x_min":0,"x_max":136,"o":"m 136 1017 l 136 0 l 0 0 l 0 1017 l 136 1017 z "},"J":{"ha":814,"x_min":0,"x_max":678,"o":"m 136 407 l 136 271 q 339 136 136 136 q 543 271 543 136 l 543 1017 l 678 1017 l 678 271 q 339 0 678 0 q 0 271 0 0 l 0 407 l 136 407 z "},"K":{"ha":814,"x_min":0,"x_max":678,"o":"m 0 1017 l 136 1017 l 136 610 l 509 1017 l 678 1017 l 339 610 l 678 0 l 475 0 l 229 496 l 136 389 l 136 0 l 0 0 l 0 1017 z "},"L":{"ha":814,"x_min":0,"x_max":678,"o":"m 0 1017 l 136 1017 l 136 136 l 678 136 l 678 0 l 0 0 l 0 1017 z "},"M":{"ha":814,"x_min":0,"x_max":678,"o":"m 0 0 l 0 1017 l 136 1017 l 136 1017 l 339 746 l 543 1017 l 543 1017 l 678 1017 l 678 0 l 543 0 l 543 814 l 339 543 l 136 814 l 136 0 l 0 0 z "},"N":{"ha":814,"x_min":0,"x_max":678,"o":"m 136 0 l 0 0 l 0 1017 l 136 1017 l 136 1017 l 543 271 l 543 1017 l 678 1017 l 678 0 l 543 0 l 543 0 l 136 746 l 136 0 z "},"O":{"ha":814,"x_min":0,"x_max":678,"o":"m 0 746 q 339 1017 0 1017 q 678 746 678 1017 l 678 271 q 339 0 678 0 q 0 271 0 0 l 0 746 m 136 271 q 339 136 136 136 q 543 271 543 136 l 543 746 q 339 882 543 882 q 136 746 136 882 l 136 271 z "},"P":{"ha":814,"x_min":0,"x_max":678,"o":"m 0 1017 l 339 1017 q 678 746 678 1017 l 678 678 q 339 407 678 407 l 136 407 l 136 0 l 0 0 l 0 1017 m 136 543 l 339 543 q 543 678 543 543 l 543 746 q 339 882 543 882 l 136 882 l 136 543 z "},"Q":{"ha":814,"x_min":0,"x_max":678,"o":"m 0 746 q 339 1017 0 1017 q 678 746 678 1017 l 678 -68 l 543 -68 l 543 0 l 339 0 q 0 271 0 0 l 0 746 m 136 271 q 339 136 136 136 l 543 136 l 543 746 q 339 882 543 882 q 136 746 136 882 l 136 271 z "},"R":{"ha":814,"x_min":0,"x_max":678,"o":"m 0 1017 l 339 1017 q 678 746 678 1017 l 678 678 q 407 407 678 407 l 543 203 l 678 0 l 511 0 l 237 407 l 136 407 l 136 0 l 0 0 l 0 1017 m 136 543 l 339 543 q 543 678 543 543 l 543 746 q 339 882 543 882 l 136 882 l 136 543 z "},"S":{"ha":814,"x_min":0,"x_max":678,"o":"m 543 746 q 339 882 543 882 q 136 746 136 882 q 339 610 136 610 q 678 339 678 610 l 678 271 q 339 0 678 0 q 0 271 0 0 l 136 271 q 339 136 136 136 q 543 271 543 136 l 543 339 q 339 475 543 475 q 0 678 0 475 l 0 746 q 339 1017 0 1017 q 678 746 678 1017 l 543 746 l 543 746 z "},"T":{"ha":814,"x_min":0,"x_max":678,"o":"m 0 1017 l 678 1017 l 678 882 l 407 882 l 407 0 l 271 0 l 271 882 l 0 882 l 0 1017 z "},"U":{"ha":814,"x_min":0,"x_max":678,"o":"m 136 1017 l 136 271 q 339 136 136 136 q 543 271 543 136 l 543 1017 l 678 1017 l 678 271 q 339 0 678 0 q 0 271 0 0 l 0 1017 l 136 1017 z "},"V":{"ha":814,"x_min":0,"x_max":678,"o":"m 0 1017 l 174 1017 l 339 271 l 507 1017 l 678 1017 l 407 0 l 271 0 l 0 1017 z "},"W":{"ha":1356,"x_min":0,"x_max":1221,"o":"m 172 1017 l 339 303 l 525 1017 l 704 1017 l 882 299 l 1051 1017 l 1221 1017 l 949 0 l 814 0 l 610 882 l 407 0 l 271 0 l 0 1017 l 172 1017 z "},"X":{"ha":814,"x_min":0,"x_max":678,"o":"m 0 1017 l 170 1017 l 339 678 l 507 1017 l 678 1017 l 435 543 l 678 0 l 511 0 l 339 407 l 168 0 l 0 0 l 251 543 l 0 1017 z "},"Y":{"ha":814,"x_min":0,"x_max":678,"o":"m 0 1017 l 170 1017 l 339 678 l 507 1017 l 678 1017 l 407 475 l 407 0 l 271 0 l 271 475 l 0 1017 z "},"Z":{"ha":814,"x_min":0,"x_max":678,"o":"m 0 1017 l 678 1017 l 678 814 l 136 136 l 678 136 l 678 0 l 0 0 l 0 203 l 543 882 l 0 882 l 0 1017 z "},"[":{"ha":475,"x_min":0,"x_max":339,"o":"m 339 814 l 136 814 l 136 136 l 339 136 l 339 0 l 0 0 l 0 949 l 339 949 l 339 814 z "},"\\":{"ha":814,"x_min":0,"x_max":678,"o":"m 136 1017 l 678 0 l 543 0 l 0 1017 l 136 1017 z "},"]":{"ha":475,"x_min":0,"x_max":339,"o":"m 0 949 l 339 949 l 339 0 l 0 0 l 0 136 l 203 136 l 203 814 l 0 814 l 0 949 z "},"^":{"ha":814,"x_min":0,"x_max":678,"o":"m 247 1017 l 370 1017 l 678 475 l 526 475 l 309 882 l 153 475 l 0 475 l 247 1017 z "},"_":{"ha":814,"x_min":0,"x_max":678,"o":"m 678 136 l 678 0 l 0 0 l 0 136 l 678 136 z "},"`":{"ha":694,"x_min":0,"x_max":0,"o":""},"a":{"ha":814,"x_min":0,"x_max":678,"o":"m 68 610 l 68 746 l 339 746 q 678 475 678 746 l 678 0 l 339 0 q 0 203 0 0 l 0 271 q 339 475 0 475 l 543 475 q 339 610 543 610 l 68 610 m 541 339 l 337 339 q 138 237 134 339 q 339 136 136 136 l 543 136 l 541 339 z "},"b":{"ha":814,"x_min":0,"x_max":678,"o":"m 0 0 l 0 1017 l 136 1017 l 136 746 l 339 746 q 678 475 678 746 l 678 339 q 339 0 678 0 l 0 0 m 136 136 l 339 136 q 543 271 543 136 l 543 475 q 339 610 543 610 l 136 610 l 136 136 z "},"c":{"ha":814,"x_min":0,"x_max":678,"o":"m 0 271 l 0 475 q 339 746 0 746 q 678 475 678 746 l 543 475 q 339 610 543 610 q 136 475 136 610 l 136 271 q 339 136 136 136 q 543 271 543 136 l 678 271 q 339 0 678 0 q 0 271 0 0 z "},"d":{"ha":814,"x_min":0,"x_max":678,"o":"m 339 0 q 0 339 0 0 l 0 475 q 339 746 0 746 l 543 746 l 543 1017 l 678 1017 l 678 0 l 339 0 m 543 610 l 339 610 q 136 475 136 610 l 136 271 q 339 136 136 136 l 543 136 l 543 610 z "},"e":{"ha":814,"x_min":0,"x_max":678,"o":"m 610 136 l 610 0 l 339 0 q 0 271 0 0 l 0 475 q 339 746 0 746 q 678 543 678 746 l 678 475 q 339 271 678 271 l 136 271 q 339 136 136 136 l 610 136 m 138 407 l 341 407 q 541 509 545 407 q 339 610 543 610 q 137 509 136 610 l 138 407 z "},"f":{"ha":678,"x_min":0,"x_max":543,"o":"m 136 610 l 0 610 l 0 746 l 136 746 q 475 1017 136 1017 l 543 1017 l 543 882 l 475 882 q 271 746 271 882 l 475 746 l 475 610 l 271 610 l 271 0 l 136 0 l 136 610 z "},"g":{"ha":814,"x_min":0,"x_max":678,"o":"m 678 746 l 678 0 q 339 -271 678 -271 l 136 -271 l 136 -136 l 339 -136 q 543 0 543 -136 l 339 0 q 0 271 0 0 l 0 407 q 339 746 0 746 l 678 746 m 543 610 l 339 610 q 136 475 136 610 l 136 271 q 339 136 136 136 l 543 136 l 543 610 z "},"h":{"ha":814,"x_min":0,"x_max":678,"o":"m 136 0 l 0 0 l 0 1017 l 136 1017 l 136 746 l 339 746 q 678 475 678 746 l 678 0 l 543 0 l 543 475 q 339 610 543 610 l 136 610 l 136 0 z "},"i":{"ha":271,"x_min":0,"x_max":136,"o":"m 136 746 l 136 0 l 0 0 l 0 746 l 136 746 m 136 1017 l 136 882 l 0 882 l 0 1017 l 136 1017 z "},"j":{"ha":543,"x_min":0,"x_max":407,"o":"m 407 0 q 68 -271 407 -271 l 0 -271 l 0 -136 l 68 -136 q 271 0 271 -136 l 271 746 l 407 746 l 407 0 m 407 1017 l 407 882 l 271 882 l 271 1017 l 407 1017 z "},"k":{"ha":814,"x_min":0,"x_max":678,"o":"m 0 1017 l 136 1017 l 136 425 l 441 746 l 610 746 l 339 425 l 678 0 l 475 0 l 229 311 l 136 227 l 136 0 l 0 0 l 0 1017 z "},"l":{"ha":543,"x_min":0,"x_max":407,"o":"m 0 1017 l 271 1017 l 271 136 l 407 136 l 407 0 l 136 0 l 136 882 l 0 882 l 0 1017 z "},"m":{"ha":1085,"x_min":0,"x_max":949,"o":"m 136 0 l 0 0 l 0 746 l 203 746 q 543 475 543 746 l 543 0 l 407 0 l 407 475 q 203 610 407 610 l 136 610 l 136 0 m 543 0 l 407 0 l 407 475 q 610 746 407 746 q 949 475 949 746 l 949 0 l 814 0 l 814 475 q 610 610 814 610 q 543 475 543 610 l 543 0 z "},"n":{"ha":814,"x_min":0,"x_max":678,"o":"m 136 0 l 0 0 l 0 746 l 339 746 q 678 475 678 746 l 678 0 l 543 0 l 543 475 q 339 610 543 610 l 136 610 l 136 0 z "},"o":{"ha":814,"x_min":0,"x_max":678,"o":"m 0 475 q 339 746 0 746 q 678 475 678 746 l 678 271 q 339 0 678 0 q 0 271 0 0 l 0 475 m 136 271 q 339 136 136 136 q 543 271 543 136 l 543 475 q 339 610 543 610 q 136 475 136 610 l 136 271 z "},"p":{"ha":814,"x_min":0,"x_max":678,"o":"m 339 746 q 678 407 678 746 l 678 271 q 339 0 678 0 l 136 0 l 136 -271 l 0 -271 l 0 746 l 339 746 m 136 136 l 339 136 q 543 271 543 136 l 543 475 q 339 610 543 610 l 136 610 l 136 136 z "},"q":{"ha":814,"x_min":0,"x_max":678,"o":"m 678 746 l 678 -271 l 543 -271 l 543 0 l 339 0 q 0 271 0 0 l 0 407 q 339 746 0 746 l 678 746 m 543 610 l 339 610 q 136 475 136 610 l 136 271 q 339 136 136 136 l 543 136 l 543 610 z "},"r":{"ha":814,"x_min":0,"x_max":678,"o":"m 136 0 l 0 0 l 0 746 l 339 746 q 678 475 678 746 l 678 407 l 543 407 l 543 475 q 339 610 543 610 l 136 610 l 136 0 z "},"s":{"ha":814,"x_min":0,"x_max":678,"o":"m 543 543 q 339 610 543 610 q 136 511 136 610 q 339 443 136 443 q 678 239 678 443 q 339 0 678 0 q 0 203 0 0 l 136 203 q 339 136 136 136 q 543 233 543 136 q 339 307 543 339 q 0 511 0 307 q 339 746 0 746 q 678 543 678 746 l 543 543 l 543 543 z "},"t":{"ha":678,"x_min":0,"x_max":543,"o":"m 136 1017 l 271 1017 l 271 746 l 475 746 l 475 610 l 271 610 l 271 271 q 475 136 271 136 l 543 136 l 543 0 l 475 0 q 136 271 136 0 l 136 610 l 0 610 l 0 746 l 136 746 l 136 1017 z "},"u":{"ha":814,"x_min":0,"x_max":678,"o":"m 136 746 l 136 271 q 339 136 136 136 q 543 271 543 136 l 543 746 l 678 746 l 678 271 q 339 0 678 0 q 0 271 0 0 l 0 746 l 136 746 z "},"v":{"ha":814,"x_min":0,"x_max":678,"o":"m 0 746 l 174 746 l 339 203 l 507 746 l 678 746 l 407 0 l 271 0 l 0 746 z "},"w":{"ha":1356,"x_min":0,"x_max":1221,"o":"m 136 746 l 339 203 l 543 746 l 678 746 l 882 203 l 1085 746 l 1221 746 l 949 0 l 814 0 l 610 610 l 407 0 l 271 0 l 0 746 l 136 746 z "},"x":{"ha":814,"x_min":0,"x_max":680,"o":"m 2 746 l 172 746 l 339 475 l 509 746 l 680 746 l 435 407 l 678 0 l 511 0 l 339 339 l 168 0 l 0 0 l 251 407 l 2 746 z "},"y":{"ha":814,"x_min":0,"x_max":678,"o":"m 0 746 l 136 746 l 136 271 q 339 136 136 136 l 543 136 l 543 746 l 678 746 l 678 0 q 339 -271 678 -271 l 136 -271 l 136 -136 l 339 -136 q 543 0 543 -136 l 339 0 q 0 271 0 0 l 0 746 z "},"z":{"ha":814,"x_min":0,"x_max":678,"o":"m 0 746 l 678 746 l 678 543 l 136 136 l 678 136 l 678 0 l 0 0 l 0 203 l 543 610 l 0 610 l 0 746 z "},"{":{"ha":610,"x_min":0,"x_max":475,"o":"m 475 814 q 271 678 271 814 q 203 475 271 610 q 271 271 271 339 q 475 136 271 136 l 475 0 q 136 271 136 0 q 0 475 136 407 q 136 678 136 543 q 475 949 136 949 l 475 814 z "},"|":{"ha":271,"x_min":0,"x_max":136,"o":"m 136 1017 l 136 0 l 0 0 l 0 1017 l 136 1017 z "},"}":{"ha":610,"x_min":0,"x_max":475,"o":"m 0 949 q 339 678 339 949 q 475 475 339 543 q 339 271 339 407 q 0 0 339 0 l 0 136 q 203 271 203 136 q 271 475 203 339 q 203 678 203 610 q 0 814 203 814 l 0 949 z "},"~":{"ha":814,"x_min":0,"x_max":678,"o":"m 136 407 l 0 407 l 0 475 q 203 746 0 746 q 407 610 339 746 q 475 485 407 475 q 543 610 543 475 l 543 678 l 678 678 l 678 610 q 475 339 678 339 q 305 475 339 339 q 203 610 271 610 q 136 475 136 610 l 136 407 z "},"¡":{"ha":271,"x_min":0,"x_max":136,"o":"m 0 0 l 0 746 l 136 746 l 136 0 l 0 0 m 0 882 l 0 1017 l 136 1017 l 136 882 l 0 882 z "},"¢":{"ha":814,"x_min":0,"x_max":678,"o":"m 0 271 l 0 475 q 339 746 0 746 q 678 475 678 746 l 543 475 q 339 610 543 610 q 136 475 136 610 l 136 271 q 339 136 136 136 q 543 271 543 136 l 678 271 q 339 0 678 0 q 0 271 0 0 m 475 1017 l 271 -271 l 203 -271 l 407 1017 l 475 1017 z "},"£":{"ha":678,"x_min":0,"x_max":543,"o":"m 136 610 l 0 610 l 0 746 l 136 746 q 475 1017 136 1017 l 543 1017 l 543 882 l 475 882 q 271 746 271 882 l 475 746 l 475 610 l 271 610 l 271 136 l 475 136 l 475 0 l 0 0 l 0 136 l 136 136 l 136 610 z "},"¤":{"ha":678,"x_min":0,"x_max":543,"o":"m 475 475 q 415 331 475 391 q 271 271 355 271 q 127 331 187 271 q 68 475 68 391 q 127 618 68 559 q 271 678 187 678 q 415 618 355 678 q 475 475 475 559 m 273 578 q 201 548 231 578 q 172 475 172 517 q 201 401 172 432 q 273 371 231 371 q 345 401 315 371 q 374 475 374 432 q 345 548 374 517 q 273 578 315 578 m 543 746 l 543 610 l 407 610 l 407 746 l 543 746 m 407 203 l 407 339 l 543 339 l 543 203 l 407 203 m 136 746 l 136 610 l 0 610 l 0 746 l 136 746 m 136 339 l 136 203 l 0 203 l 0 339 l 136 339 z "},"¥":{"ha":814,"x_min":0,"x_max":678,"o":"m 0 1017 l 170 1017 l 339 678 l 507 1017 l 678 1017 l 407 475 l 407 0 l 271 0 l 271 475 l 0 1017 m 678 543 l 678 475 l 0 475 l 0 543 l 678 543 m 678 339 l 678 271 l 0 271 l 0 339 l 678 339 z "},"¦":{"ha":271,"x_min":0,"x_max":136,"o":"m 136 1017 l 136 608 l 0 608 l 0 1017 l 136 1017 m 136 407 l 136 0 l 0 0 l 0 407 l 136 407 z "},"§":{"ha":814,"x_min":0,"x_max":678,"o":"m 543 746 q 339 882 543 882 q 136 746 136 882 q 339 678 136 678 q 678 407 678 678 l 678 271 q 339 0 678 0 q 0 271 0 0 l 136 271 q 339 136 136 136 q 543 271 543 136 q 339 339 543 339 q 0 543 0 407 l 0 746 q 339 1017 0 1017 q 678 746 678 1017 l 543 746 m 339 610 q 136 543 136 610 q 339 407 136 407 q 543 475 543 375 q 339 610 543 610 z "},"¨":{"ha":543,"x_min":0,"x_max":407,"o":"m 136 1017 l 136 882 l 0 882 l 0 1017 l 136 1017 m 407 1017 l 407 882 l 271 882 l 271 1017 l 407 1017 z "},"©":{"ha":1289,"x_min":0,"x_max":1153,"o":"m 304 290 l 304 456 q 582 679 304 679 q 859 456 859 679 l 748 456 q 582 568 748 568 q 415 456 415 568 l 415 290 q 582 179 415 179 q 748 290 748 179 l 859 290 q 582 68 859 68 q 304 290 304 68 m 1153 369 q 984 -88 1153 101 q 576 -277 815 -277 q 169 -88 338 -277 q 0 369 0 101 q 169 826 0 637 q 576 1015 338 1015 q 984 826 815 1015 q 1153 369 1153 637 m 576 882 q 265 733 394 882 q 136 373 136 584 q 265 13 136 162 q 576 -136 394 -136 q 888 13 759 -136 q 1017 373 1017 162 q 888 733 1017 584 q 576 882 759 882 z "},"ª":{"ha":678,"x_min":0,"x_max":547,"o":"m 109 853 l 0 853 q 273 1017 0 1017 q 547 799 547 1017 l 547 416 l 273 416 q 0 580 0 416 l 0 635 q 273 799 0 799 l 437 799 q 273 908 437 908 q 109 853 109 908 m 435 689 l 272 689 q 111 608 108 689 q 273 526 109 526 l 437 526 l 435 689 z "},"«":{"ha":814,"x_min":0,"x_max":678,"o":"m 0 407 l 0 543 l 339 846 l 339 678 l 136 475 l 339 271 l 339 104 l 0 407 m 339 407 l 339 543 l 678 846 l 678 678 l 475 475 l 678 271 l 678 104 l 339 407 z "},"¬":{"ha":814,"x_min":0,"x_max":678,"o":"m 0 1017 l 678 1017 l 678 746 l 543 746 l 543 882 l 0 882 l 0 1017 z "},"®":{"ha":1289,"x_min":0,"x_max":1153,"o":"m 1153 369 q 984 -88 1153 101 q 576 -277 815 -277 q 169 -88 338 -277 q 0 369 0 101 q 169 826 0 637 q 576 1015 338 1015 q 984 826 815 1015 q 1153 369 1153 637 m 576 882 q 265 733 394 882 q 136 373 136 584 q 265 13 136 162 q 576 -136 394 -136 q 888 13 759 -136 q 1017 373 1017 162 q 888 733 1017 584 q 576 882 759 882 m 377 678 l 582 678 q 786 515 786 678 l 786 474 q 623 310 786 310 l 704 187 l 786 65 l 686 65 l 520 310 l 459 310 l 459 65 l 377 65 l 377 678 m 472 393 l 586 393 q 701 469 701 393 l 701 507 q 586 583 701 583 l 472 583 l 472 393 z "},"¯":{"ha":814,"x_min":0,"x_max":678,"o":"m 678 949 l 678 814 l 0 814 l 0 949 l 678 949 z "},"°":{"ha":610,"x_min":0,"x_max":475,"o":"m 475 780 q 405 612 475 682 q 237 543 336 543 q 70 612 139 543 q 0 780 0 682 q 70 948 0 878 q 237 1017 139 1017 q 405 948 336 1017 q 475 780 475 878 m 237 949 q 117 900 167 949 q 68 780 68 850 q 117 660 68 709 q 237 610 167 610 q 357 660 308 610 q 407 780 407 709 q 357 900 407 850 q 237 949 308 949 z "},"±":{"ha":814,"x_min":0,"x_max":678,"o":"m 678 678 l 678 543 l 0 543 l 0 678 l 678 678 m 407 949 l 407 271 l 271 271 l 271 949 l 407 949 m 678 136 l 678 0 l 0 0 l 0 136 l 678 136 z "},"²":{"ha":407,"x_min":3,"x_max":271,"o":"m 3 610 q 137 825 3 825 q 218 906 218 825 q 137 960 218 960 q 56 906 56 960 l 3 906 q 137 1013 3 1013 q 271 906 271 1013 q 137 772 271 772 q 56 664 56 772 l 271 664 l 271 610 l 3 610 z "},"³":{"ha":407,"x_min":0,"x_max":273,"o":"m 54 908 l 0 908 q 136 1017 0 1017 q 273 908 273 1017 q 218 827 273 854 q 273 772 273 799 l 273 718 q 136 608 273 608 q 0 718 0 608 l 54 718 q 136 663 54 663 q 218 718 218 663 q 163 799 218 799 l 109 799 l 109 854 l 163 854 q 218 908 218 854 q 136 963 218 963 q 54 908 54 963 z "},"´":{"ha":475,"x_min":0,"x_max":339,"o":"m 339 1017 l 136 678 l 0 678 l 203 1017 l 339 1017 z "},"µ":{"ha":814,"x_min":0,"x_max":678,"o":"m 136 746 l 136 339 q 339 136 271 136 q 543 339 407 136 l 543 746 l 678 746 l 678 -68 l 543 -68 l 543 203 q 339 0 475 0 q 136 203 203 0 l 136 -271 l 0 -271 l 0 746 l 136 746 z "},"¶":{"ha":814,"x_min":0,"x_max":678,"o":"m 136 678 q 0 814 0 678 q 136 949 0 949 l 678 949 l 678 814 l 543 814 l 543 0 l 407 0 l 407 814 l 271 814 l 271 0 l 136 0 l 136 678 z "},"¸":{"ha":678,"x_min":136,"x_max":580,"o":"m 407 0 l 494 -68 q 571 -253 580 -109 q 475 -339 543 -339 q 136 -136 271 -339 l 339 -203 q 407 -136 543 -247 l 271 0 l 407 0 z "},"¹":{"ha":339,"x_min":0,"x_max":218,"o":"m 0 962 q 82 1017 82 962 l 136 1017 l 136 662 l 218 662 l 218 608 l 0 608 l 0 662 l 82 662 l 82 908 l 0 908 l 0 962 z "},"º":{"ha":407,"x_min":0,"x_max":271,"o":"m 0 909 q 136 1017 0 1017 q 271 909 271 1017 l 271 720 q 136 612 271 612 q 0 720 0 612 l 0 909 m 54 720 q 136 665 54 665 q 216 720 216 665 l 216 909 q 136 963 216 963 q 54 909 54 963 l 54 720 z "},"»":{"ha":814,"x_min":0,"x_max":678,"o":"m 339 104 l 339 271 l 543 475 l 339 678 l 339 846 l 678 543 l 678 407 l 339 104 m 0 104 l 0 271 l 203 475 l 0 678 l 0 846 l 339 543 l 339 407 l 0 104 z "},"¼":{"ha":949,"x_min":0,"x_max":813,"o":"m 746 1017 l 203 0 l 68 0 l 610 1017 l 746 1017 m 543 406 l 597 406 l 597 216 l 759 216 l 759 406 l 813 406 l 813 0 l 759 0 l 759 162 l 543 162 l 543 406 m 0 962 q 82 1017 82 962 l 136 1017 l 136 662 l 218 662 l 218 608 l 0 608 l 0 662 l 82 662 l 82 908 l 0 908 l 0 962 z "},"½":{"ha":949,"x_min":0,"x_max":814,"o":"m 746 1017 l 203 0 l 68 0 l 610 1017 l 746 1017 m 0 962 q 82 1017 82 962 l 136 1017 l 136 662 l 218 662 l 218 608 l 0 608 l 0 662 l 82 662 l 82 908 l 0 908 l 0 962 m 814 0 l 814 54 l 599 54 q 680 161 599 161 q 814 296 814 161 q 680 403 814 403 q 545 296 545 403 l 599 296 q 680 349 599 349 q 760 296 760 349 q 680 215 760 215 q 545 0 545 215 l 814 0 z "},"¾":{"ha":949,"x_min":0,"x_max":813,"o":"m 746 1017 l 203 0 l 68 0 l 610 1017 l 746 1017 m 543 406 l 597 406 l 597 216 l 759 216 l 759 406 l 813 406 l 813 0 l 759 0 l 759 162 l 543 162 l 543 406 m 54 908 l 0 908 q 136 1017 0 1017 q 273 908 273 1017 q 218 827 273 854 q 273 772 273 799 l 273 718 q 136 608 273 608 q 0 718 0 608 l 54 718 q 136 663 54 663 q 218 718 218 663 q 163 799 218 799 l 109 799 l 109 854 l 163 854 q 218 908 218 854 q 136 963 218 963 q 54 908 54 963 z "},"¿":{"ha":814,"x_min":0,"x_max":678,"o":"m 339 746 q 136 610 339 610 q 0 271 0 610 q 339 0 0 0 q 678 271 678 0 l 543 271 q 339 136 543 136 q 136 271 136 136 q 203 475 136 475 q 475 746 475 475 l 339 746 m 339 882 l 339 1017 l 475 1017 l 475 882 l 339 882 z "},"À":{"ha":814,"x_min":0,"x_max":678,"o":"m 0 0 l 0 746 q 339 1017 0 1017 q 678 746 678 1017 l 678 0 l 543 0 l 543 407 l 136 407 l 136 0 l 0 0 m 543 543 l 543 746 q 339 882 543 882 q 136 746 136 882 l 136 543 l 543 543 m 203 1424 l 339 1153 l 203 1153 l 68 1424 l 203 1424 z "},"Á":{"ha":814,"x_min":0,"x_max":678,"o":"m 0 0 l 0 746 q 339 1017 0 1017 q 678 746 678 1017 l 678 0 l 543 0 l 543 407 l 136 407 l 136 0 l 0 0 m 543 543 l 543 746 q 339 882 543 882 q 136 746 136 882 l 136 543 l 543 543 m 610 1424 l 475 1153 l 339 1153 l 475 1424 l 610 1424 z "},"Â":{"ha":814,"x_min":0,"x_max":678,"o":"m 0 0 l 0 746 q 339 1017 0 1017 q 678 746 678 1017 l 678 0 l 543 0 l 543 407 l 136 407 l 136 0 l 0 0 m 543 543 l 543 746 q 339 882 543 882 q 136 746 136 882 l 136 543 l 543 543 m 407 1424 l 543 1153 l 407 1153 l 271 1424 l 407 1424 m 407 1424 l 271 1153 l 136 1153 l 271 1424 l 407 1424 z "},"Ã":{"ha":814,"x_min":0,"x_max":678,"o":"m 0 0 l 0 746 q 339 1017 0 1017 q 678 746 678 1017 l 678 0 l 543 0 l 543 407 l 136 407 l 136 0 l 0 0 m 543 543 l 543 746 q 339 882 543 882 q 136 746 136 882 l 136 543 l 543 543 m 407 1356 l 543 1153 l 407 1153 l 271 1356 l 407 1356 m 407 1356 l 271 1153 l 136 1153 l 271 1356 l 407 1356 m 678 1356 l 543 1153 l 407 1153 l 543 1356 l 678 1356 z "},"Ä":{"ha":814,"x_min":0,"x_max":678,"o":"m 0 0 l 0 746 q 339 1017 0 1017 q 678 746 678 1017 l 678 0 l 543 0 l 543 407 l 136 407 l 136 0 l 0 0 m 543 543 l 543 746 q 339 882 543 882 q 136 746 136 882 l 136 543 l 543 543 m 271 1255 q 241 1183 271 1213 q 170 1153 212 1153 q 98 1183 127 1153 q 68 1255 68 1213 q 98 1326 68 1297 q 170 1356 127 1356 q 241 1326 212 1356 q 271 1255 271 1297 m 610 1255 q 581 1183 610 1213 q 509 1153 551 1153 q 437 1183 467 1153 q 407 1255 407 1213 q 437 1326 407 1297 q 509 1356 467 1356 q 581 1326 551 1356 q 610 1255 610 1297 z "},"Å":{"ha":814,"x_min":0,"x_max":678,"o":"m 0 0 l 0 746 q 339 1017 0 1017 q 678 746 678 1017 l 678 0 l 543 0 l 543 407 l 136 407 l 136 0 l 0 0 m 543 543 l 543 746 q 339 882 543 882 q 136 746 136 882 l 136 543 l 543 543 m 503 1187 q 454 1067 503 1116 q 334 1017 404 1017 q 214 1067 263 1017 q 164 1187 164 1116 q 214 1307 164 1257 q 334 1356 263 1356 q 454 1307 404 1356 q 503 1187 503 1257 m 334 1289 q 262 1259 292 1289 q 232 1187 232 1229 q 262 1115 232 1145 q 334 1085 292 1085 q 406 1115 376 1085 q 435 1187 435 1145 q 406 1259 435 1229 q 334 1289 376 1289 z "},"Æ":{"ha":1356,"x_min":0,"x_max":1221,"o":"m 0 0 l 0 746 q 339 1017 0 1017 q 678 746 678 1017 l 678 0 l 543 0 l 543 407 l 136 407 l 136 0 l 0 0 m 543 543 l 543 746 q 339 882 543 882 q 136 746 136 882 l 136 543 l 543 543 m 543 0 l 543 1017 l 1221 1017 l 1221 882 l 678 882 l 678 610 l 1085 610 l 1085 475 l 678 475 l 678 136 l 1221 136 l 1221 0 l 543 0 z "},"Ç":{"ha":814,"x_min":0,"x_max":678,"o":"m 0 271 l 0 746 q 339 1017 0 1017 q 678 746 678 1017 l 543 746 q 339 882 543 882 q 136 746 136 882 l 136 271 q 339 136 136 136 q 543 271 543 136 l 678 271 q 339 0 678 0 q 0 271 0 0 m 271 0 l 407 -136 q 339 -203 543 -247 l 136 -136 q 475 -339 271 -339 q 571 -253 543 -339 q 494 -68 580 -109 l 407 0 l 271 0 z "},"È":{"ha":814,"x_min":0,"x_max":678,"o":"m 0 0 l 0 1017 l 678 1017 l 678 882 l 136 882 l 136 610 l 543 610 l 543 475 l 136 475 l 136 136 l 678 136 l 678 0 l 0 0 m 203 1424 l 339 1153 l 203 1153 l 68 1424 l 203 1424 z "},"É":{"ha":814,"x_min":0,"x_max":678,"o":"m 0 0 l 0 1017 l 678 1017 l 678 882 l 136 882 l 136 610 l 543 610 l 543 475 l 136 475 l 136 136 l 678 136 l 678 0 l 0 0 m 610 1424 l 475 1153 l 339 1153 l 475 1424 l 610 1424 z "},"Ê":{"ha":814,"x_min":0,"x_max":678,"o":"m 0 0 l 0 1017 l 678 1017 l 678 882 l 136 882 l 136 610 l 543 610 l 543 475 l 136 475 l 136 136 l 678 136 l 678 0 l 0 0 m 407 1424 l 543 1153 l 407 1153 l 271 1424 l 407 1424 m 407 1424 l 271 1153 l 136 1153 l 271 1424 l 407 1424 z "},"Ë":{"ha":814,"x_min":0,"x_max":678,"o":"m 0 0 l 0 1017 l 678 1017 l 678 882 l 136 882 l 136 610 l 543 610 l 543 475 l 136 475 l 136 136 l 678 136 l 678 0 l 0 0 m 271 1255 q 241 1183 271 1213 q 170 1153 212 1153 q 98 1183 127 1153 q 68 1255 68 1213 q 98 1326 68 1297 q 170 1356 127 1356 q 241 1326 212 1356 q 271 1255 271 1297 m 610 1255 q 581 1183 610 1213 q 509 1153 551 1153 q 437 1183 467 1153 q 407 1255 407 1213 q 437 1326 407 1297 q 509 1356 467 1356 q 581 1326 551 1356 q 610 1255 610 1297 z "},"Ì":{"ha":271,"x_min":-136,"x_max":136,"o":"m 136 1017 l 136 0 l 0 0 l 0 1017 l 136 1017 m 0 1424 l 136 1153 l 0 1153 l -136 1424 l 0 1424 z "},"Í":{"ha":271,"x_min":0,"x_max":271,"o":"m 136 1017 l 136 0 l 0 0 l 0 1017 l 136 1017 m 271 1424 l 136 1153 l 0 1153 l 136 1424 l 271 1424 z "},"Î":{"ha":475,"x_min":0,"x_max":407,"o":"m 271 1017 l 271 0 l 136 0 l 136 1017 l 271 1017 m 271 1424 l 407 1153 l 271 1153 l 136 1424 l 271 1424 m 271 1424 l 136 1153 l 0 1153 l 136 1424 l 271 1424 z "},"Ï":{"ha":610,"x_min":0,"x_max":543,"o":"m 339 1017 l 339 0 l 203 0 l 203 1017 l 339 1017 m 203 1255 q 174 1183 203 1213 q 102 1153 144 1153 q 30 1183 60 1153 q 0 1255 0 1213 q 30 1326 0 1297 q 102 1356 60 1356 q 174 1326 144 1356 q 203 1255 203 1297 m 543 1255 q 513 1183 543 1213 q 441 1153 483 1153 q 369 1183 399 1153 q 339 1255 339 1213 q 369 1326 339 1297 q 441 1356 399 1356 q 513 1326 483 1356 q 543 1255 543 1297 z "},"Ð":{"ha":882,"x_min":0,"x_max":746,"o":"m 68 1017 l 407 1017 q 746 746 746 1017 l 746 271 q 407 0 746 0 l 68 0 l 68 1017 m 203 136 l 407 136 q 610 271 610 136 l 610 746 q 407 882 610 882 l 203 882 l 203 136 m 407 610 l 407 475 l 0 475 l 0 610 l 407 610 z "},"Ñ":{"ha":814,"x_min":0,"x_max":678,"o":"m 407 1356 l 543 1153 l 407 1153 l 271 1356 l 407 1356 m 407 1356 l 271 1153 l 136 1153 l 271 1356 l 407 1356 m 678 1356 l 543 1153 l 407 1153 l 543 1356 l 678 1356 m 136 0 l 0 0 l 0 1017 l 136 1017 l 136 1017 l 543 271 l 543 1017 l 678 1017 l 678 0 l 543 0 l 543 0 l 136 746 l 136 0 z "},"Ò":{"ha":814,"x_min":0,"x_max":678,"o":"m 0 746 q 339 1017 0 1017 q 678 746 678 1017 l 678 271 q 339 0 678 0 q 0 271 0 0 l 0 746 m 136 271 q 339 136 136 136 q 543 271 543 136 l 543 746 q 339 882 543 882 q 136 746 136 882 l 136 271 m 203 1424 l 339 1153 l 203 1153 l 68 1424 l 203 1424 z "},"Ó":{"ha":814,"x_min":0,"x_max":678,"o":"m 0 746 q 339 1017 0 1017 q 678 746 678 1017 l 678 271 q 339 0 678 0 q 0 271 0 0 l 0 746 m 136 271 q 339 136 136 136 q 543 271 543 136 l 543 746 q 339 882 543 882 q 136 746 136 882 l 136 271 m 610 1424 l 475 1153 l 339 1153 l 475 1424 l 610 1424 z "},"Ô":{"ha":814,"x_min":0,"x_max":678,"o":"m 0 746 q 339 1017 0 1017 q 678 746 678 1017 l 678 271 q 339 0 678 0 q 0 271 0 0 l 0 746 m 136 271 q 339 136 136 136 q 543 271 543 136 l 543 746 q 339 882 543 882 q 136 746 136 882 l 136 271 m 407 1424 l 543 1153 l 407 1153 l 271 1424 l 407 1424 m 407 1424 l 271 1153 l 136 1153 l 271 1424 l 407 1424 z "},"Õ":{"ha":814,"x_min":0,"x_max":678,"o":"m 0 746 q 339 1017 0 1017 q 678 746 678 1017 l 678 271 q 339 0 678 0 q 0 271 0 0 l 0 746 m 136 271 q 339 136 136 136 q 543 271 543 136 l 543 746 q 339 882 543 882 q 136 746 136 882 l 136 271 m 407 1356 l 543 1153 l 407 1153 l 271 1356 l 407 1356 m 407 1356 l 271 1153 l 136 1153 l 271 1356 l 407 1356 m 678 1356 l 543 1153 l 407 1153 l 543 1356 l 678 1356 z "},"Ö":{"ha":814,"x_min":0,"x_max":678,"o":"m 0 746 q 339 1017 0 1017 q 678 746 678 1017 l 678 271 q 339 0 678 0 q 0 271 0 0 l 0 746 m 136 271 q 339 136 136 136 q 543 271 543 136 l 543 746 q 339 882 543 882 q 136 746 136 882 l 136 271 m 271 1255 q 241 1183 271 1213 q 170 1153 212 1153 q 98 1183 127 1153 q 68 1255 68 1213 q 98 1326 68 1297 q 170 1356 127 1356 q 241 1326 212 1356 q 271 1255 271 1297 m 610 1255 q 581 1183 610 1213 q 509 1153 551 1153 q 437 1183 467 1153 q 407 1255 407 1213 q 437 1326 407 1297 q 509 1356 467 1356 q 581 1326 551 1356 q 610 1255 610 1297 z "},"×":{"ha":814,"x_min":52,"x_max":627,"o":"m 52 734 l 147 830 l 627 351 l 531 255 l 52 734 m 52 351 l 531 830 l 627 734 l 147 255 l 52 351 z "},"Ø":{"ha":814,"x_min":-68,"x_max":746,"o":"m 0 746 q 339 1017 0 1017 q 678 746 678 1017 l 678 271 q 339 0 678 0 q 0 271 0 0 l 0 746 m 136 271 q 339 136 136 136 q 543 271 543 136 l 543 746 q 339 882 543 882 q 136 746 136 882 l 136 271 m 746 1085 l 0 -68 l -68 -68 l 678 1085 l 746 1085 z "},"Ù":{"ha":814,"x_min":0,"x_max":678,"o":"m 0 1017 l 0 271 q 339 0 0 0 q 678 271 678 0 l 678 1017 l 543 1017 l 543 271 q 339 136 543 136 q 136 271 136 136 l 136 1017 l 0 1017 m 203 1424 l 339 1153 l 203 1153 l 68 1424 l 203 1424 z "},"Ú":{"ha":814,"x_min":0,"x_max":678,"o":"m 0 1017 l 0 271 q 339 0 0 0 q 678 271 678 0 l 678 1017 l 543 1017 l 543 271 q 339 136 543 136 q 136 271 136 136 l 136 1017 l 0 1017 m 610 1424 l 475 1153 l 339 1153 l 475 1424 l 610 1424 z "},"Û":{"ha":814,"x_min":0,"x_max":678,"o":"m 0 1017 l 0 271 q 339 0 0 0 q 678 271 678 0 l 678 1017 l 543 1017 l 543 271 q 339 136 543 136 q 136 271 136 136 l 136 1017 l 0 1017 m 407 1424 l 543 1153 l 407 1153 l 271 1424 l 407 1424 m 407 1424 l 271 1153 l 136 1153 l 271 1424 l 407 1424 z "},"Ü":{"ha":814,"x_min":0,"x_max":678,"o":"m 0 1017 l 0 271 q 339 0 0 0 q 678 271 678 0 l 678 1017 l 543 1017 l 543 271 q 339 136 543 136 q 136 271 136 136 l 136 1017 l 0 1017 m 271 1255 q 241 1183 271 1213 q 170 1153 212 1153 q 98 1183 127 1153 q 68 1255 68 1213 q 98 1326 68 1297 q 170 1356 127 1356 q 241 1326 212 1356 q 271 1255 271 1297 m 610 1255 q 581 1183 610 1213 q 509 1153 551 1153 q 437 1183 467 1153 q 407 1255 407 1213 q 437 1326 407 1297 q 509 1356 467 1356 q 581 1326 551 1356 q 610 1255 610 1297 z "},"Ý":{"ha":814,"x_min":0,"x_max":678,"o":"m 0 1017 l 170 1017 l 339 678 l 507 1017 l 678 1017 l 407 475 l 407 0 l 271 0 l 271 475 l 0 1017 m 610 1424 l 475 1153 l 339 1153 l 475 1424 l 610 1424 z "},"Þ":{"ha":814,"x_min":0,"x_max":678,"o":"m 136 136 l 136 0 l 0 0 l 0 1017 l 136 1017 l 136 882 l 339 882 q 678 610 678 882 l 678 475 q 339 136 678 136 l 136 136 m 136 271 l 339 271 q 543 407 543 271 l 543 610 q 339 746 543 746 l 136 746 l 136 271 z "},"ß":{"ha":814,"x_min":0,"x_max":678,"o":"m 136 0 l 0 0 l 0 746 q 271 1017 0 1017 q 610 746 610 1017 q 543 543 610 678 q 678 339 678 407 l 678 271 q 339 0 678 0 l 203 0 l 203 136 l 339 136 q 543 271 543 136 q 339 475 543 475 l 203 475 l 203 610 l 339 610 q 475 746 495 610 q 271 882 475 882 q 136 746 136 882 l 136 0 z "},"à":{"ha":814,"x_min":0,"x_max":678,"o":"m 203 1153 l 339 882 l 203 882 l 68 1153 l 203 1153 m 68 610 l 68 746 l 339 746 q 678 475 678 746 l 678 0 l 339 0 q 0 203 0 0 l 0 271 q 339 475 0 475 l 543 475 q 339 610 543 610 l 68 610 m 541 339 l 337 339 q 138 237 134 339 q 339 136 136 136 l 543 136 l 541 339 z "},"á":{"ha":814,"x_min":0,"x_max":678,"o":"m 610 1153 l 475 882 l 339 882 l 475 1153 l 610 1153 m 68 610 l 68 746 l 339 746 q 678 475 678 746 l 678 0 l 339 0 q 0 203 0 0 l 0 271 q 339 475 0 475 l 543 475 q 339 610 543 610 l 68 610 m 541 339 l 337 339 q 138 237 134 339 q 339 136 136 136 l 543 136 l 541 339 z "},"â":{"ha":814,"x_min":0,"x_max":678,"o":"m 407 1153 l 543 882 l 407 882 l 271 1153 l 407 1153 m 407 1153 l 271 882 l 136 882 l 271 1153 l 407 1153 m 68 610 l 68 746 l 339 746 q 678 475 678 746 l 678 0 l 339 0 q 0 203 0 0 l 0 271 q 339 475 0 475 l 543 475 q 339 610 543 610 l 68 610 m 541 339 l 337 339 q 138 237 134 339 q 339 136 136 136 l 543 136 l 541 339 z "},"ã":{"ha":814,"x_min":0,"x_max":678,"o":"m 407 1085 l 543 882 l 407 882 l 271 1085 l 407 1085 m 407 1085 l 271 882 l 136 882 l 271 1085 l 407 1085 m 678 1085 l 543 882 l 407 882 l 543 1085 l 678 1085 m 68 610 l 68 746 l 339 746 q 678 475 678 746 l 678 0 l 339 0 q 0 203 0 0 l 0 271 q 339 475 0 475 l 543 475 q 339 610 543 610 l 68 610 m 541 339 l 337 339 q 138 237 134 339 q 339 136 136 136 l 543 136 l 541 339 z "},"ä":{"ha":814,"x_min":0,"x_max":678,"o":"m 271 983 q 241 911 271 941 q 170 882 212 882 q 98 911 127 882 q 68 983 68 941 q 98 1055 68 1025 q 170 1085 127 1085 q 241 1055 212 1085 q 271 983 271 1025 m 610 983 q 581 911 610 941 q 509 882 551 882 q 437 911 467 882 q 407 983 407 941 q 437 1055 407 1025 q 509 1085 467 1085 q 581 1055 551 1085 q 610 983 610 1025 m 68 610 l 68 746 l 339 746 q 678 475 678 746 l 678 0 l 339 0 q 0 203 0 0 l 0 271 q 339 475 0 475 l 543 475 q 339 610 543 610 l 68 610 m 541 339 l 337 339 q 138 237 134 339 q 339 136 136 136 l 543 136 l 541 339 z "},"å":{"ha":814,"x_min":0,"x_max":678,"o":"m 501 1051 q 452 931 501 981 q 332 882 402 882 q 212 931 261 882 q 162 1051 162 981 q 212 1171 162 1122 q 332 1221 261 1221 q 452 1171 402 1221 q 501 1051 501 1122 m 332 1153 q 260 1123 290 1153 q 230 1051 230 1093 q 260 979 230 1009 q 332 949 290 949 q 404 979 374 949 q 433 1051 433 1009 q 404 1123 433 1093 q 332 1153 374 1153 m 68 610 l 68 746 l 339 746 q 678 475 678 746 l 678 0 l 339 0 q 0 203 0 0 l 0 271 q 339 475 0 475 l 543 475 q 339 610 543 610 l 68 610 m 541 339 l 337 339 q 138 237 134 339 q 339 136 136 136 l 543 136 l 541 339 z "},"æ":{"ha":1356,"x_min":0,"x_max":1221,"o":"m 136 543 l 0 543 q 339 746 0 746 q 678 475 678 746 l 678 0 l 339 0 q 0 203 0 0 l 0 271 q 339 475 0 475 l 543 475 q 339 610 543 610 q 136 543 136 610 m 541 339 l 337 339 q 138 237 134 339 q 339 136 136 136 l 543 136 l 541 339 m 1085 203 l 1221 203 q 882 0 1221 0 q 543 271 543 0 l 543 475 q 882 746 543 746 q 1221 543 1221 746 l 1221 475 q 882 271 1221 271 l 678 271 q 882 136 678 136 q 1085 203 1085 136 m 680 407 l 884 407 q 1083 509 1087 407 q 882 610 1085 610 q 680 509 678 610 l 680 407 z "},"ç":{"ha":814,"x_min":0,"x_max":678,"o":"m 0 271 l 0 475 q 339 746 0 746 q 678 475 678 746 l 543 475 q 339 610 543 610 q 136 475 136 610 l 136 271 q 339 136 136 136 q 543 271 543 136 l 678 271 q 339 0 678 0 q 0 271 0 0 m 271 0 q 385 -235 452 -136 l 271 -203 l 136 -68 l 177 -226 q 407 -339 271 -339 q 510 -136 543 -249 l 407 0 l 271 0 z "},"è":{"ha":814,"x_min":0,"x_max":678,"o":"m 203 1153 l 339 882 l 203 882 l 68 1153 l 203 1153 m 610 136 l 610 0 l 339 0 q 0 271 0 0 l 0 475 q 339 746 0 746 q 678 543 678 746 l 678 475 q 339 271 678 271 l 136 271 q 339 136 136 136 l 610 136 m 138 407 l 341 407 q 541 509 545 407 q 339 610 543 610 q 137 509 136 610 l 138 407 z "},"é":{"ha":814,"x_min":0,"x_max":678,"o":"m 610 1153 l 475 882 l 339 882 l 475 1153 l 610 1153 m 610 136 l 610 0 l 339 0 q 0 271 0 0 l 0 475 q 339 746 0 746 q 678 543 678 746 l 678 475 q 339 271 678 271 l 136 271 q 339 136 136 136 l 610 136 m 138 407 l 341 407 q 541 509 545 407 q 339 610 543 610 q 137 509 136 610 l 138 407 z "},"ê":{"ha":814,"x_min":0,"x_max":678,"o":"m 407 1153 l 543 882 l 407 882 l 271 1153 l 407 1153 m 407 1153 l 271 882 l 136 882 l 271 1153 l 407 1153 m 610 136 l 610 0 l 339 0 q 0 271 0 0 l 0 475 q 339 746 0 746 q 678 543 678 746 l 678 475 q 339 271 678 271 l 136 271 q 339 136 136 136 l 610 136 m 138 407 l 341 407 q 541 509 545 407 q 339 610 543 610 q 137 509 136 610 l 138 407 z "},"ë":{"ha":814,"x_min":0,"x_max":678,"o":"m 271 983 q 241 911 271 941 q 170 882 212 882 q 98 911 127 882 q 68 983 68 941 q 98 1055 68 1025 q 170 1085 127 1085 q 241 1055 212 1085 q 271 983 271 1025 m 610 983 q 581 911 610 941 q 509 882 551 882 q 437 911 467 882 q 407 983 407 941 q 437 1055 407 1025 q 509 1085 467 1085 q 581 1055 551 1085 q 610 983 610 1025 m 610 136 l 610 0 l 339 0 q 0 271 0 0 l 0 475 q 339 746 0 746 q 678 543 678 746 l 678 475 q 339 271 678 271 l 136 271 q 339 136 136 136 l 610 136 m 138 407 l 341 407 q 541 509 545 407 q 339 610 543 610 q 137 509 136 610 l 138 407 z "},"ì":{"ha":271,"x_min":-136,"x_max":136,"o":"m 136 746 l 136 0 l 0 0 l 0 746 l 136 746 m 0 1153 l 136 882 l 0 882 l -136 1153 l 0 1153 z "},"í":{"ha":271,"x_min":0,"x_max":271,"o":"m 136 746 l 136 0 l 0 0 l 0 746 l 136 746 m 271 1153 l 136 882 l 0 882 l 136 1153 l 271 1153 z "},"î":{"ha":475,"x_min":0,"x_max":407,"o":"m 271 746 l 271 0 l 136 0 l 136 746 l 271 746 m 271 1153 l 407 882 l 271 882 l 136 1153 l 271 1153 m 271 1153 l 136 882 l 0 882 l 136 1153 l 271 1153 z "},"ï":{"ha":610,"x_min":0,"x_max":543,"o":"m 339 746 l 339 0 l 203 0 l 203 746 l 339 746 m 203 983 q 174 911 203 941 q 102 882 144 882 q 30 911 60 882 q 0 983 0 941 q 30 1055 0 1025 q 102 1085 60 1085 q 174 1055 144 1085 q 203 983 203 1025 m 543 983 q 513 911 543 941 q 441 882 483 882 q 369 911 399 882 q 339 983 339 941 q 369 1055 339 1025 q 441 1085 399 1085 q 513 1055 483 1085 q 543 983 543 1025 z "},"ð":{"ha":814,"x_min":0,"x_max":678,"o":"m 339 610 l 543 610 l 543 746 q 339 882 543 882 l 339 1017 q 678 746 678 1017 l 678 271 q 339 0 678 0 q 0 271 0 0 l 0 339 q 339 610 0 610 m 136 339 l 136 271 q 339 136 136 136 q 543 271 543 136 l 543 475 l 339 475 q 136 339 136 475 z "},"ñ":{"ha":814,"x_min":0,"x_max":678,"o":"m 136 0 l 0 0 l 0 746 l 339 746 q 678 475 678 746 l 678 0 l 543 0 l 543 475 q 339 610 543 610 l 136 610 l 136 0 m 407 1085 l 543 882 l 407 882 l 271 1085 l 407 1085 m 407 1085 l 271 882 l 136 882 l 271 1085 l 407 1085 m 678 1085 l 543 882 l 407 882 l 543 1085 l 678 1085 z "},"ò":{"ha":814,"x_min":0,"x_max":678,"o":"m 203 1153 l 339 882 l 203 882 l 68 1153 l 203 1153 m 0 475 q 339 746 0 746 q 678 475 678 746 l 678 271 q 339 0 678 0 q 0 271 0 0 l 0 475 m 136 271 q 339 136 136 136 q 543 271 543 136 l 543 475 q 339 610 543 610 q 136 475 136 610 l 136 271 z "},"ó":{"ha":814,"x_min":0,"x_max":678,"o":"m 610 1153 l 475 882 l 339 882 l 475 1153 l 610 1153 m 0 475 q 339 746 0 746 q 678 475 678 746 l 678 271 q 339 0 678 0 q 0 271 0 0 l 0 475 m 136 271 q 339 136 136 136 q 543 271 543 136 l 543 475 q 339 610 543 610 q 136 475 136 610 l 136 271 z "},"ô":{"ha":814,"x_min":0,"x_max":678,"o":"m 0 475 q 339 746 0 746 q 678 475 678 746 l 678 271 q 339 0 678 0 q 0 271 0 0 l 0 475 m 136 271 q 339 136 136 136 q 543 271 543 136 l 543 475 q 339 610 543 610 q 136 475 136 610 l 136 271 m 407 1153 l 543 882 l 407 882 l 271 1153 l 407 1153 m 407 1153 l 271 882 l 136 882 l 271 1153 l 407 1153 z "},"õ":{"ha":814,"x_min":0,"x_max":678,"o":"m 0 475 q 339 746 0 746 q 678 475 678 746 l 678 271 q 339 0 678 0 q 0 271 0 0 l 0 475 m 136 271 q 339 136 136 136 q 543 271 543 136 l 543 475 q 339 610 543 610 q 136 475 136 610 l 136 271 m 407 1085 l 543 882 l 407 882 l 271 1085 l 407 1085 m 407 1085 l 271 882 l 136 882 l 271 1085 l 407 1085 m 678 1085 l 543 882 l 407 882 l 543 1085 l 678 1085 z "},"ö":{"ha":814,"x_min":0,"x_max":678,"o":"m 0 475 q 339 746 0 746 q 678 475 678 746 l 678 271 q 339 0 678 0 q 0 271 0 0 l 0 475 m 136 271 q 339 136 136 136 q 543 271 543 136 l 543 475 q 339 610 543 610 q 136 475 136 610 l 136 271 m 271 983 q 241 911 271 941 q 170 882 212 882 q 98 911 127 882 q 68 983 68 941 q 98 1055 68 1025 q 170 1085 127 1085 q 241 1055 212 1085 q 271 983 271 1025 m 610 983 q 581 911 610 941 q 509 882 551 882 q 437 911 467 882 q 407 983 407 941 q 437 1055 407 1025 q 509 1085 467 1085 q 581 1055 551 1085 q 610 983 610 1025 z "},"÷":{"ha":746,"x_min":0,"x_max":610,"o":"m 407 780 q 377 708 407 738 q 306 678 347 678 q 234 708 264 678 q 204 780 204 738 q 234 851 204 821 q 306 881 264 881 q 377 851 347 881 q 407 780 407 821 m 408 306 q 378 233 408 263 q 306 203 349 203 q 233 233 263 203 q 203 306 203 263 q 233 378 203 349 q 306 408 263 408 q 378 378 349 408 q 408 306 408 349 m 610 610 l 610 475 l 0 475 l 0 610 l 610 610 z "},"ø":{"ha":814,"x_min":-68,"x_max":746,"o":"m 0 475 q 339 746 0 746 q 678 475 678 746 l 678 271 q 339 0 678 0 q 0 271 0 0 l 0 475 m 136 271 q 339 136 136 136 q 543 271 543 136 l 543 475 q 339 610 543 610 q 136 475 136 610 l 136 271 m 746 814 l 0 -68 l -68 -68 l 678 814 l 746 814 z "},"ù":{"ha":814,"x_min":0,"x_max":678,"o":"m 0 746 l 0 271 q 339 0 0 0 q 678 271 678 0 l 678 746 l 543 746 l 543 271 q 339 136 543 136 q 136 271 136 136 l 136 746 l 0 746 m 203 1153 l 339 882 l 203 882 l 68 1153 l 203 1153 z "},"ú":{"ha":814,"x_min":0,"x_max":678,"o":"m 0 746 l 0 271 q 339 0 0 0 q 678 271 678 0 l 678 746 l 543 746 l 543 271 q 339 136 543 136 q 136 271 136 136 l 136 746 l 0 746 m 610 1153 l 475 882 l 339 882 l 475 1153 l 610 1153 z "},"û":{"ha":814,"x_min":0,"x_max":678,"o":"m 0 746 l 0 271 q 339 0 0 0 q 678 271 678 0 l 678 746 l 543 746 l 543 271 q 339 136 543 136 q 136 271 136 136 l 136 746 l 0 746 m 407 1153 l 543 882 l 407 882 l 271 1153 l 407 1153 m 407 1153 l 271 882 l 136 882 l 271 1153 l 407 1153 z "},"ü":{"ha":814,"x_min":0,"x_max":678,"o":"m 0 746 l 0 271 q 339 0 0 0 q 678 271 678 0 l 678 746 l 543 746 l 543 271 q 339 136 543 136 q 136 271 136 136 l 136 746 l 0 746 m 271 983 q 241 911 271 941 q 170 882 212 882 q 98 911 127 882 q 68 983 68 941 q 98 1055 68 1025 q 170 1085 127 1085 q 241 1055 212 1085 q 271 983 271 1025 m 610 983 q 581 911 610 941 q 509 882 551 882 q 437 911 467 882 q 407 983 407 941 q 437 1055 407 1025 q 509 1085 467 1085 q 581 1055 551 1085 q 610 983 610 1025 z "},"ý":{"ha":814,"x_min":0,"x_max":678,"o":"m 0 746 l 136 746 l 136 271 q 339 136 136 136 l 543 136 l 543 746 l 678 746 l 678 0 q 339 -271 678 -271 l 136 -271 l 136 -136 l 339 -136 q 543 0 543 -136 l 339 0 q 0 271 0 0 l 0 746 m 610 1153 l 475 882 l 339 882 l 475 1153 l 610 1153 z "},"þ":{"ha":814,"x_min":0,"x_max":678,"o":"m 136 0 l 136 -271 l 0 -271 l 0 1017 l 136 1017 l 136 746 l 339 746 q 678 475 678 746 l 678 339 q 339 0 678 0 l 136 0 m 136 136 l 339 136 q 543 271 543 136 l 543 475 q 339 610 543 610 l 136 610 l 136 136 z "},"ÿ":{"ha":814,"x_min":0,"x_max":678,"o":"m 0 746 l 136 746 l 136 271 q 339 136 136 136 l 543 136 l 543 746 l 678 746 l 678 0 q 339 -271 678 -271 l 136 -271 l 136 -136 l 339 -136 q 543 0 543 -136 l 339 0 q 0 271 0 0 l 0 746 m 271 983 q 241 911 271 941 q 170 882 212 882 q 98 911 127 882 q 68 983 68 941 q 98 1055 68 1025 q 170 1085 127 1085 q 241 1055 212 1085 q 271 983 271 1025 m 610 983 q 581 911 610 941 q 509 882 551 882 q 437 911 467 882 q 407 983 407 941 q 437 1055 407 1025 q 509 1085 467 1085 q 581 1055 551 1085 q 610 983 610 1025 z "},"ˆ":{"ha":694,"x_min":0,"x_max":0,"o":""},"˜":{"ha":694,"x_min":0,"x_max":0,"o":""},"–":{"ha":678,"x_min":0,"x_max":543,"o":"m 543 746 l 543 610 l 0 610 l 0 746 l 543 746 z "},"—":{"ha":949,"x_min":0,"x_max":814,"o":"m 814 746 l 814 610 l 0 610 l 0 746 l 814 746 z "},"‘":{"ha":339,"x_min":0,"x_max":203,"o":"m 203 913 q 104 814 203 814 q 5 913 5 814 l 5 1013 l 0 1152 l 50 1152 l 104 1013 q 203 913 203 1013 z "},"’":{"ha":339,"x_min":0,"x_max":203,"o":"m 0 918 q 100 1017 0 1017 q 199 918 199 1017 l 199 818 l 203 678 l 154 678 l 100 818 q 0 918 0 818 z "},"‚":{"ha":339,"x_min":0,"x_max":203,"o":"m 0 240 q 100 339 0 339 q 199 240 199 339 l 199 140 l 203 1 l 154 1 l 100 140 q 0 240 0 140 z "},"“":{"ha":678,"x_min":0,"x_max":543,"o":"m 203 913 q 104 814 203 814 q 5 913 5 814 l 5 1013 l 0 1152 l 50 1152 l 104 1013 q 203 913 203 1013 m 543 913 q 443 814 543 814 q 344 913 344 814 l 344 1013 l 339 1152 l 389 1152 l 443 1013 q 543 913 543 1013 z "},"”":{"ha":678,"x_min":0,"x_max":543,"o":"m 0 918 q 100 1017 0 1017 q 199 918 199 1017 l 199 818 l 203 678 l 154 678 l 100 818 q 0 918 0 818 m 339 918 q 439 1017 339 1017 q 538 918 538 1017 l 538 818 l 543 678 l 493 678 l 439 818 q 339 918 339 818 z "},"„":{"ha":678,"x_min":0,"x_max":543,"o":"m 0 239 q 100 338 0 338 q 199 239 199 338 l 199 140 l 203 0 l 154 0 l 100 140 q 0 239 0 140 m 339 239 q 439 338 339 338 q 538 239 538 338 l 538 140 l 543 0 l 493 0 l 439 140 q 339 239 339 140 z "},"†":{"ha":678,"x_min":0,"x_max":543,"o":"m 339 1017 l 339 746 l 543 746 l 543 610 l 339 610 l 339 0 l 203 0 l 203 610 l 0 610 l 0 746 l 203 746 l 203 1017 l 339 1017 z "},"‡":{"ha":678,"x_min":0,"x_max":543,"o":"m 339 1017 l 339 746 l 543 746 l 543 610 l 339 610 l 339 407 l 543 407 l 543 271 l 339 271 l 339 0 l 203 0 l 203 271 l 0 271 l 0 407 l 203 407 l 203 610 l 0 610 l 0 746 l 203 746 l 203 1017 l 339 1017 z "},"•":{"ha":475,"x_min":0,"x_max":339,"o":"m 339 509 q 290 389 339 438 q 170 339 240 339 q 50 389 99 339 q 0 509 0 438 q 50 629 0 579 q 170 678 99 678 q 290 629 240 678 q 339 509 339 579 z "},"…":{"ha":882,"x_min":-1,"x_max":747,"o":"m 203 101 q 174 28 203 58 q 101 -1 144 -1 q 28 28 58 -1 q -1 101 -1 58 q 28 174 -1 144 q 101 203 58 203 q 174 174 144 203 q 203 101 203 144 m 476 101 q 446 28 476 58 q 374 -1 416 -1 q 301 28 331 -1 q 271 101 271 58 q 301 174 271 144 q 374 203 331 203 q 446 174 416 203 q 476 101 476 144 m 747 101 q 718 28 747 58 q 645 -1 688 -1 q 572 28 602 -1 q 543 101 543 58 q 572 174 543 144 q 645 203 602 203 q 718 174 688 203 q 747 101 747 144 z "},"‹":{"ha":428,"x_min":0,"x_max":0,"o":""},"›":{"ha":428,"x_min":0,"x_max":0,"o":""},"€":{"ha":882,"x_min":0,"x_max":746,"o":"m 68 271 l 68 746 q 407 1017 68 1017 q 746 746 746 1017 l 610 746 q 407 882 610 882 q 203 746 203 882 l 203 271 q 407 136 203 136 q 610 271 610 136 l 746 271 q 407 0 746 0 q 68 271 68 0 m 543 640 l 543 572 l 0 572 l 0 640 l 543 640 m 543 451 l 543 383 l 0 383 l 0 451 l 543 451 z "},"™":{"ha":1015,"x_min":0,"x_max":0,"o":""},"ƒ":{"ha":747,"x_min":0,"x_max":610,"o":"m 203 610 l 68 610 l 68 746 l 203 746 q 543 1017 203 1017 l 610 1017 l 610 882 l 543 882 q 339 746 339 882 l 543 746 l 543 610 l 339 610 l 339 0 q 0 -271 339 -271 l 0 -136 q 203 0 203 -136 l 203 610 z "},"-":{"ha":814,"x_min":0,"x_max":678,"o":"m 678 610 l 678 475 l 0 475 l 0 610 l 678 610 z "}," ":{"ha":679,"x_min":0,"x_max":0,"o":""},";":{"ha":338,"x_min":0,"x_max":203,"o":"m 203 713 q 173 641 203 671 q 102 611 143 611 q 30 641 60 611 q 0 713 0 671 q 30 784 0 754 q 102 814 60 814 q 173 784 143 814 q 203 713 203 754 m 0 240 q 100 339 0 339 q 199 240 199 339 l 199 140 l 203 1 l 154 1 l 100 140 q 0 240 0 140 z "},"­":{"ha":814,"x_min":0,"x_max":678,"o":"m 678 610 l 678 475 l 0 475 l 0 610 l 678 610 z "},"·":{"ha":339,"x_min":-1,"x_max":203,"o":"m 203 508 q 174 435 203 465 q 101 406 144 406 q 28 435 58 406 q -1 508 -1 465 q 28 581 -1 551 q 101 610 58 610 q 174 581 144 610 q 203 508 203 551 z "},"‰":{"ha":1155,"x_min":0,"x_max":1017,"o":"m 678 1017 l 136 0 l 0 0 l 543 1017 l 678 1017 m 271 882 q 232 786 271 825 q 136 746 192 746 q 40 786 79 746 q 0 882 0 825 q 40 978 0 938 q 136 1017 79 1017 q 232 978 192 1017 q 271 882 271 938 m 136 949 q 88 929 108 949 q 68 882 68 909 q 88 834 68 854 q 136 814 108 814 q 183 834 163 814 q 203 882 203 854 q 183 929 203 909 q 136 949 163 949 m 678 136 q 638 40 678 79 q 543 0 599 0 q 447 40 486 0 q 407 136 407 79 q 447 232 407 192 q 543 271 486 271 q 638 232 599 271 q 678 136 678 192 m 543 203 q 495 183 515 203 q 475 136 475 163 q 495 88 475 108 q 543 68 515 68 q 590 88 570 68 q 610 136 610 108 q 590 183 610 163 q 543 203 570 203 m 1017 136 q 978 40 1017 79 q 882 0 938 0 q 786 40 825 0 q 746 136 746 79 q 786 232 746 192 q 882 271 825 271 q 978 232 938 271 q 1017 136 1017 192 m 882 203 q 834 183 854 203 q 814 136 814 163 q 834 88 814 108 q 882 68 854 68 q 929 88 909 68 q 949 136 949 108 q 929 183 949 163 q 882 203 909 203 z "},"Š":{"ha":814,"x_min":0,"x_max":678,"o":"m 543 746 q 339 882 543 882 q 136 746 136 882 q 339 610 136 610 q 678 339 678 610 l 678 271 q 339 0 678 0 q 0 271 0 0 l 136 271 q 339 136 136 136 q 543 271 543 136 l 543 339 q 339 475 543 475 q 0 678 0 475 l 0 746 q 339 1017 0 1017 q 678 746 678 1017 l 543 746 m 136 1356 l 271 1356 l 407 1153 l 271 1153 l 136 1356 m 407 1356 l 543 1356 l 407 1153 l 271 1153 l 407 1356 z "},"Ž":{"ha":814,"x_min":0,"x_max":678,"o":"m 136 1356 l 271 1356 l 407 1153 l 271 1153 l 136 1356 m 407 1356 l 543 1356 l 407 1153 l 271 1153 l 407 1356 m 0 1017 l 678 1017 l 678 814 l 136 136 l 678 136 l 678 0 l 0 0 l 0 203 l 543 882 l 0 882 l 0 1017 z "},"Œ":{"ha":1356,"x_min":0,"x_max":1221,"o":"m 0 746 q 339 1017 0 1017 q 678 746 678 1017 l 678 271 q 339 0 678 0 q 0 271 0 0 l 0 746 m 136 271 q 339 136 136 136 q 543 271 543 136 l 543 746 q 339 882 543 882 q 136 746 136 882 l 136 271 m 543 0 l 543 1017 l 1221 1017 l 1221 882 l 678 882 l 678 610 l 1085 610 l 1085 475 l 678 475 l 678 136 l 1221 136 l 1221 0 l 543 0 z "},"š":{"ha":812,"x_min":0,"x_max":678,"o":"m 136 1085 l 271 1085 l 407 882 l 271 882 l 136 1085 m 407 1085 l 543 1085 l 407 882 l 271 882 l 407 1085 m 543 543 q 339 610 543 610 q 136 511 136 610 q 339 443 136 443 q 678 239 678 443 q 339 0 678 0 q 0 203 0 0 l 136 203 q 339 136 136 136 q 543 233 543 136 q 339 307 543 339 q 0 511 0 307 q 339 746 0 746 q 678 543 678 746 l 543 543 z "},"ž":{"ha":814,"x_min":0,"x_max":678,"o":"m 136 1085 l 271 1085 l 407 882 l 271 882 l 136 1085 m 407 1085 l 543 1085 l 407 882 l 271 882 l 407 1085 m 0 746 l 678 746 l 678 543 l 136 136 l 678 136 l 678 0 l 0 0 l 0 203 l 543 610 l 0 610 l 0 746 z "},"Ÿ":{"ha":814,"x_min":0,"x_max":678,"o":"m 271 1255 q 241 1183 271 1213 q 170 1153 212 1153 q 98 1183 127 1153 q 68 1255 68 1213 q 98 1326 68 1297 q 170 1356 127 1356 q 241 1326 212 1356 q 271 1255 271 1297 m 610 1255 q 581 1183 610 1213 q 509 1153 551 1153 q 437 1183 467 1153 q 407 1255 407 1213 q 437 1326 407 1297 q 509 1356 467 1356 q 581 1326 551 1356 q 610 1255 610 1297 m 0 1017 l 170 1017 l 339 678 l 507 1017 l 678 1017 l 407 475 l 407 0 l 271 0 l 271 475 l 0 1017 z "},"œ":{"ha":1356,"x_min":0,"x_max":1222,"o":"m 0 475 q 339 746 0 746 q 678 475 678 746 l 678 271 q 339 0 678 0 q 0 271 0 0 l 0 475 m 136 271 q 339 136 136 136 q 543 271 543 136 l 543 475 q 339 610 543 610 q 136 475 136 610 l 136 271 m 1154 138 l 1154 3 l 883 3 q 544 274 544 3 l 544 477 q 883 749 544 749 q 1222 545 1222 749 l 1222 477 q 883 274 1222 274 l 680 274 q 883 138 680 138 l 1154 138 m 682 410 l 885 410 q 1084 511 1088 410 q 883 613 1086 613 q 681 511 680 613 l 682 410 z "},"!":{"ha":271,"x_min":0,"x_max":136,"o":"m 136 1017 l 136 271 l 0 271 l 0 1017 l 136 1017 m 136 136 l 136 0 l 0 0 l 0 136 l 136 136 z "}}}
